# xmcd CD database file
#
# Track frame offsets:
#	150
#	21167
#	43092
#	54612
#	73197
#	85087
#	101529
#	115757
#	133507
#	144315
#	158347
#	172057
#
# Disc length: 2757 seconds
#
# Revision: 10
# Processed by: cddbd v1.5.1PL0 Copyright (c) Steve Scherf et al.
# Submitted via: CDex 1.50
#
DISCID=9c0ac30c
DTITLE=Les Porte-Mentaux - Les Porte-Mentaux
DYEAR=1987
DGENRE=Country
TTITLE0=Elsa Fraulein
TTITLE1=Bleu Blanc Noir
TTITLE2=Plus d'amour
TTITLE3=La rose noire
TTITLE4=Extermination
TTITLE5=Les jardins de la misère
TTITLE6=Assasins
TTITLE7=Sha la la
TTITLE8=Les P.M. (les Porte-Mentaux) 
TTITLE9=Combat des Races
TTITLE10=Juste une bombe
TTITLE11=Elsa Fraulein (Remix)
EXTD=YEAR: 1987
EXTT0=
EXTT1=
EXTT2=
EXTT3=
EXTT4=
EXTT5=
EXTT6=
EXTT7=
EXTT8=
EXTT9=
EXTT10=
EXTT11=
PLAYORDER=
